<svg width="1280" height="640" viewBox="0 0 1280 640" fill="none" xmlns="http://www.w3.org/2000/svg">
<rect width="1280" height="640" fill="url(#paint0_linear_0_1)"/>
<path d="M560.844 248.938H588.125C591.375 248.938 594.484 249.359 597.453 250.203C600.453 251.047 603.234 252.234 605.797 253.766C608.391 255.297 610.734 257.141 612.828 259.297C614.953 261.422 616.766 263.797 618.266 266.422C619.766 269.047 620.922 271.875 621.734 274.906C622.547 277.938 622.953 281.094 622.953 284.375C622.953 287.656 622.547 290.812 621.734 293.844C620.922 296.875 619.766 299.719 618.266 302.375C616.766 305 614.953 307.406 612.828 309.594C610.734 311.75 608.391 313.609 605.797 315.172C603.234 316.703 600.453 317.891 597.453 318.734C594.484 319.578 591.375 320 588.125 320H560.844V307.156H566.516V261.828H560.844V248.938ZM582.078 261.828V307.156H588.031C590.562 307.156 592.953 306.562 595.203 305.375C597.453 304.188 599.406 302.578 601.062 300.547C602.719 298.484 604.031 296.078 605 293.328C605.969 290.547 606.453 287.562 606.453 284.375C606.453 281.219 605.969 278.266 605 275.516C604.031 272.766 602.719 270.375 601.062 268.344C599.406 266.312 597.453 264.719 595.203 263.562C592.953 262.406 590.562 261.828 588.031 261.828H582.078ZM657.969 307.156H660.734L654.688 301.391L648.406 307.156H651.547V320H628.672V307.156H633.5L645.547 295.344L634.391 284.281H628.672V271.438H651.547V284.281H649.344L655.016 289.297L660.453 284.281H657.875V271.438H680.703V284.281H675.359L664.156 295.391L676.016 307.156H680.844V320H657.969V307.156ZM708.594 271.438H717.453V283.719H708.594V307.156H717.547V320H687.406V307.156H694.672V283.719H687.312V271.438H694.672V263.375C694.672 260.531 695.172 258.031 696.172 255.875C697.172 253.719 698.5 251.906 700.156 250.438C701.844 248.969 703.781 247.859 705.969 247.109C708.156 246.359 710.453 245.984 712.859 245.984C714.641 245.984 716.234 246.125 717.641 246.406C719.047 246.656 720.281 246.984 721.344 247.391C722.406 247.797 723.297 248.234 724.016 248.703C724.766 249.172 725.359 249.609 725.797 250.016L720.406 259.906C719.688 259.375 718.875 258.953 717.969 258.641C717.062 258.328 715.953 258.172 714.641 258.172C713.797 258.172 713 258.312 712.25 258.594C711.531 258.875 710.891 259.281 710.328 259.812C709.797 260.344 709.375 261.016 709.062 261.828C708.75 262.609 708.594 263.531 708.594 264.594V271.438Z" fill="#6610F2"/>
<path d="M412.849 355.592H414.176L413.578 353.676H409.482L408.885 355.592H410.291V358H405.237V355.592H406.23L409.86 344.676H413.385L416.936 355.592H417.902V358H412.849V355.592ZM410.177 351.426H412.866L411.513 347.093L410.177 351.426ZM422.438 344.676H427.474V347.348H426.542V356.488C426.413 356.963 426.226 357.399 425.979 357.798C425.733 358.19 425.49 358.548 425.25 358.87C425.016 359.192 424.685 359.6 424.257 360.092L421.805 359.96C422.15 359.433 422.42 358.996 422.613 358.65C422.812 358.311 423.012 357.936 423.211 357.525C423.41 357.109 423.565 356.667 423.677 356.198V347.348H422.438V344.676ZM434.048 357.508C433.843 357.637 433.655 357.748 433.485 357.842C433.315 357.93 433.146 358 432.976 358.053C432.806 358.111 432.63 358.152 432.448 358.176C432.267 358.205 432.067 358.22 431.851 358.22C431.306 358.22 430.816 358.146 430.383 358C429.955 357.848 429.592 357.643 429.293 357.385C429 357.121 428.774 356.813 428.616 356.462C428.458 356.104 428.379 355.718 428.379 355.302C428.379 354.88 428.458 354.49 428.616 354.133C428.78 353.775 429.015 353.471 429.319 353.219C429.624 352.961 429.996 352.762 430.436 352.621C430.881 352.475 431.388 352.401 431.956 352.401C432.372 352.401 432.75 352.425 433.09 352.472C433.436 352.513 433.755 352.565 434.048 352.63V352.349C434.048 352.12 434.004 351.924 433.916 351.76C433.828 351.59 433.705 351.452 433.547 351.347C433.389 351.235 433.198 351.156 432.976 351.109C432.753 351.057 432.51 351.03 432.246 351.03C431.695 351.03 431.209 351.086 430.787 351.197C430.371 351.303 429.97 351.458 429.583 351.663L428.739 349.958C429.337 349.548 429.961 349.234 430.611 349.018C431.268 348.801 431.962 348.692 432.694 348.692C433.263 348.692 433.787 348.757 434.268 348.886C434.754 349.009 435.17 349.214 435.516 349.501C435.861 349.782 436.131 350.151 436.324 350.608C436.523 351.065 436.623 351.622 436.623 352.278V355.592H437.845V358H434.048V357.508ZM432.044 356.146C432.46 356.146 432.838 356.078 433.178 355.943C433.518 355.809 433.808 355.645 434.048 355.451V354.291H431.938C431.804 354.291 431.672 354.312 431.543 354.353C431.414 354.394 431.297 354.452 431.191 354.528C431.092 354.604 431.01 354.698 430.945 354.81C430.887 354.921 430.857 355.05 430.857 355.196C430.857 355.466 430.954 355.691 431.147 355.873C431.347 356.055 431.646 356.146 432.044 356.146ZM439.356 348.895H444.111V351.303H443.004L444.489 355.214L445.922 351.303H444.938V348.895H449.692V351.303H448.479L445.764 358.035H443.083L440.367 351.303H439.356V348.895ZM456.354 357.508C456.149 357.637 455.962 357.748 455.792 357.842C455.622 357.93 455.452 358 455.282 358.053C455.112 358.111 454.937 358.152 454.755 358.176C454.573 358.205 454.374 358.22 454.157 358.22C453.612 358.22 453.123 358.146 452.689 358C452.262 357.848 451.898 357.643 451.6 357.385C451.307 357.121 451.081 356.813 450.923 356.462C450.765 356.104 450.686 355.718 450.686 355.302C450.686 354.88 450.765 354.49 450.923 354.133C451.087 353.775 451.321 353.471 451.626 353.219C451.931 352.961 452.303 352.762 452.742 352.621C453.188 352.475 453.694 352.401 454.263 352.401C454.679 352.401 455.057 352.425 455.396 352.472C455.742 352.513 456.062 352.565 456.354 352.63V352.349C456.354 352.12 456.311 351.924 456.223 351.76C456.135 351.59 456.012 351.452 455.854 351.347C455.695 351.235 455.505 351.156 455.282 351.109C455.06 351.057 454.816 351.03 454.553 351.03C454.002 351.03 453.516 351.086 453.094 351.197C452.678 351.303 452.276 351.458 451.89 351.663L451.046 349.958C451.644 349.548 452.268 349.234 452.918 349.018C453.574 348.801 454.269 348.692 455.001 348.692C455.569 348.692 456.094 348.757 456.574 348.886C457.061 349.009 457.477 349.214 457.822 349.501C458.168 349.782 458.438 350.151 458.631 350.608C458.83 351.065 458.93 351.622 458.93 352.278V355.592H460.151V358H456.354V357.508ZM454.351 356.146C454.767 356.146 455.145 356.078 455.484 355.943C455.824 355.809 456.114 355.645 456.354 355.451V354.291H454.245C454.11 354.291 453.979 354.312 453.85 354.353C453.721 354.394 453.604 354.452 453.498 354.528C453.398 354.604 453.316 354.698 453.252 354.81C453.193 354.921 453.164 355.05 453.164 355.196C453.164 355.466 453.261 355.691 453.454 355.873C453.653 356.055 453.952 356.146 454.351 356.146ZM468.703 348.429C468.674 348.224 468.601 348.03 468.483 347.849C468.372 347.667 468.226 347.512 468.044 347.383C467.868 347.248 467.666 347.143 467.438 347.066C467.215 346.99 466.98 346.952 466.734 346.952C466.512 346.952 466.304 346.976 466.11 347.022C465.917 347.069 465.747 347.143 465.601 347.242C465.46 347.336 465.346 347.459 465.258 347.611C465.176 347.764 465.135 347.945 465.135 348.156C465.135 348.42 465.19 348.631 465.302 348.789C465.419 348.941 465.565 349.067 465.741 349.167C465.923 349.267 466.122 349.346 466.339 349.404C466.556 349.463 466.767 349.527 466.972 349.598L469.389 350.406C469.723 350.523 470.036 350.685 470.329 350.89C470.622 351.095 470.874 351.344 471.085 351.637C471.302 351.93 471.472 352.267 471.595 352.647C471.718 353.028 471.779 353.456 471.779 353.931C471.779 354.575 471.659 355.164 471.419 355.697C471.185 356.23 470.854 356.688 470.426 357.068C469.998 357.449 469.485 357.745 468.888 357.956C468.29 358.167 467.628 358.272 466.901 358.272C466.392 358.272 465.908 358.214 465.451 358.097C465 357.985 464.587 357.821 464.212 357.604C463.837 357.388 463.509 357.13 463.228 356.831C462.946 356.526 462.727 356.184 462.568 355.803H461.663V353.157H464.845V353.702C464.845 353.966 464.886 354.209 464.968 354.432C465.056 354.654 465.185 354.848 465.354 355.012C465.524 355.176 465.738 355.305 465.996 355.398C466.254 355.486 466.556 355.53 466.901 355.53C467.429 355.53 467.83 355.41 468.105 355.17C468.381 354.924 468.519 354.584 468.519 354.15C468.519 353.928 468.469 353.743 468.369 353.597C468.275 353.444 468.152 353.318 468 353.219C467.848 353.113 467.678 353.025 467.49 352.955C467.303 352.885 467.118 352.82 466.937 352.762L464.924 352.111C464.543 351.994 464.174 351.83 463.816 351.619C463.465 351.408 463.151 351.145 462.876 350.828C462.606 350.512 462.39 350.143 462.226 349.721C462.067 349.293 461.988 348.807 461.988 348.262C461.988 347.629 462.105 347.066 462.34 346.574C462.574 346.076 462.902 345.657 463.324 345.317C463.746 344.978 464.247 344.72 464.827 344.544C465.407 344.368 466.043 344.28 466.734 344.28C467.279 344.28 467.783 344.345 468.246 344.474C468.709 344.597 469.122 344.764 469.485 344.975C469.854 345.186 470.165 345.429 470.417 345.704C470.675 345.974 470.871 346.255 471.006 346.548H471.885V349.202H468.703V348.429ZM479.777 352.041C479.525 351.725 479.244 351.487 478.934 351.329C478.623 351.165 478.257 351.095 477.835 351.118C477.495 351.095 477.185 351.142 476.903 351.259C476.628 351.376 476.388 351.54 476.183 351.751C475.983 351.962 475.828 352.214 475.717 352.507C475.605 352.794 475.55 353.119 475.55 353.482C475.55 353.805 475.608 354.109 475.726 354.396C475.843 354.684 476.001 354.933 476.2 355.144C476.405 355.349 476.646 355.51 476.921 355.627C477.202 355.744 477.507 355.814 477.835 355.838C478.11 355.814 478.359 355.759 478.582 355.671C478.811 355.577 479.013 355.46 479.188 355.319C479.364 355.173 479.514 355.012 479.637 354.836C479.766 354.654 479.865 354.484 479.936 354.326L482.353 354.994C482.253 355.346 482.08 355.712 481.834 356.093C481.594 356.474 481.277 356.822 480.885 357.139C480.498 357.449 480.035 357.707 479.496 357.912C478.963 358.117 478.354 358.22 477.668 358.22C476.971 358.22 476.329 358.094 475.743 357.842C475.157 357.584 474.653 357.235 474.231 356.796C473.81 356.356 473.479 355.841 473.238 355.249C473.004 354.657 472.887 354.021 472.887 353.342C472.887 352.668 473.007 352.044 473.247 351.47C473.493 350.89 473.83 350.386 474.258 349.958C474.686 349.524 475.192 349.188 475.778 348.947C476.37 348.707 477.012 348.599 477.703 348.622C478.195 348.599 478.673 348.654 479.136 348.789C479.599 348.924 480.038 349.126 480.454 349.396H482.203V352.041H479.777ZM491.59 352.208H489.12V351.268C488.88 351.268 488.66 351.285 488.461 351.32C488.262 351.35 488.086 351.402 487.934 351.479C487.787 351.555 487.661 351.66 487.556 351.795C487.456 351.93 487.386 352.097 487.345 352.296V355.592H489.199V358H483.258V355.592H484.62V351.303H483.275V348.895H487.327V349.536C487.585 349.331 487.875 349.173 488.197 349.062C488.52 348.95 488.871 348.895 489.252 348.895C489.639 348.895 490.037 348.897 490.447 348.903C490.857 348.909 491.238 348.912 491.59 348.912V352.208ZM493.084 348.895H497.171V355.592H498.437V358H493.084V355.592H494.455V351.303H493.084V348.895ZM494.314 345.959C494.314 345.742 494.353 345.54 494.429 345.353C494.511 345.159 494.622 344.992 494.763 344.852C494.903 344.711 495.067 344.6 495.255 344.518C495.448 344.436 495.656 344.395 495.879 344.395C496.09 344.395 496.289 344.436 496.477 344.518C496.664 344.6 496.828 344.711 496.969 344.852C497.109 344.992 497.221 345.159 497.303 345.353C497.385 345.54 497.426 345.742 497.426 345.959C497.426 346.176 497.385 346.381 497.303 346.574C497.221 346.762 497.109 346.926 496.969 347.066C496.828 347.207 496.664 347.318 496.477 347.4C496.289 347.482 496.09 347.523 495.879 347.523C495.656 347.523 495.448 347.482 495.255 347.4C495.067 347.318 494.903 347.207 494.763 347.066C494.622 346.926 494.511 346.762 494.429 346.574C494.353 346.381 494.314 346.176 494.314 345.959ZM500.37 348.895H504.343V349.026C504.624 348.903 504.911 348.807 505.204 348.736C505.497 348.66 505.799 348.622 506.109 348.622C506.777 348.622 507.398 348.748 507.973 349C508.547 349.252 509.045 349.595 509.467 350.028C509.889 350.462 510.217 350.969 510.451 351.549C510.691 352.129 510.812 352.744 510.812 353.395C510.812 354.051 510.694 354.669 510.46 355.249C510.231 355.829 509.909 356.336 509.493 356.77C509.077 357.197 508.579 357.537 507.999 357.789C507.425 358.035 506.795 358.158 506.109 358.158C505.723 358.158 505.362 358.12 505.028 358.044C504.694 357.974 504.372 357.871 504.062 357.736V359.731H505.802V362.14H499.86V359.731H501.354V351.303H500.37V348.895ZM505.916 351.048C505.547 351.048 505.201 351.145 504.879 351.338C504.557 351.531 504.284 351.804 504.062 352.155V354.722C504.249 355.021 504.504 355.264 504.826 355.451C505.148 355.639 505.512 355.732 505.916 355.732C506.215 355.732 506.499 355.677 506.769 355.565C507.038 355.448 507.272 355.287 507.472 355.082C507.671 354.871 507.829 354.625 507.946 354.344C508.063 354.057 508.122 353.746 508.122 353.412C508.122 353.043 508.063 352.712 507.946 352.419C507.835 352.126 507.68 351.88 507.48 351.681C507.281 351.476 507.047 351.32 506.777 351.215C506.508 351.104 506.221 351.048 505.916 351.048ZM515.487 348.895H517.307V351.197H515.47L515.452 355.047C515.452 355.27 515.47 355.451 515.505 355.592C515.54 355.727 515.59 355.835 515.654 355.917C515.725 355.999 515.807 356.055 515.9 356.084C515.994 356.113 516.103 356.128 516.226 356.128C516.448 356.128 516.645 356.107 516.814 356.066C516.984 356.02 517.154 355.967 517.324 355.908L517.702 357.604C517.403 357.792 517.069 357.941 516.7 358.053C516.337 358.164 515.903 358.22 515.399 358.22C515.042 358.22 514.699 358.158 514.371 358.035C514.049 357.912 513.765 357.728 513.519 357.481C513.272 357.229 513.076 356.916 512.93 356.541C512.783 356.166 512.713 355.729 512.719 355.231L512.745 351.197H511.436V348.895H512.754L512.771 346.715L515.505 345.414L515.487 348.895ZM522.686 348.895H526.772V355.592H528.038V358H522.686V355.592H524.057V351.303H522.686V348.895ZM523.916 345.959C523.916 345.742 523.954 345.54 524.03 345.353C524.112 345.159 524.224 344.992 524.364 344.852C524.505 344.711 524.669 344.6 524.856 344.518C525.05 344.436 525.258 344.395 525.48 344.395C525.691 344.395 525.891 344.436 526.078 344.518C526.266 344.6 526.43 344.711 526.57 344.852C526.711 344.992 526.822 345.159 526.904 345.353C526.986 345.54 527.027 345.742 527.027 345.959C527.027 346.176 526.986 346.381 526.904 346.574C526.822 346.762 526.711 346.926 526.57 347.066C526.43 347.207 526.266 347.318 526.078 347.4C525.891 347.482 525.691 347.523 525.48 347.523C525.258 347.523 525.05 347.482 524.856 347.4C524.669 347.318 524.505 347.207 524.364 347.066C524.224 346.926 524.112 346.762 524.03 346.574C523.954 346.381 523.916 346.176 523.916 345.959ZM537.117 352.762C537.117 352.252 536.982 351.854 536.713 351.566C536.443 351.273 536.086 351.127 535.641 351.127C535.336 351.127 535.028 351.194 534.718 351.329C534.407 351.464 534.105 351.716 533.812 352.085V355.592H535.289V358H529.629V355.592H530.965V351.303H529.646V348.895H533.795V349.694C534.176 349.396 534.601 349.161 535.069 348.991C535.544 348.815 536.042 348.728 536.563 348.728C537.659 348.728 538.503 349.035 539.095 349.65C539.687 350.26 539.982 351.153 539.982 352.331V355.592H541.274V358H537.117V352.762ZM545.897 348.895H547.717V351.197H545.88L545.862 355.047C545.862 355.27 545.88 355.451 545.915 355.592C545.95 355.727 546 355.835 546.064 355.917C546.135 355.999 546.217 356.055 546.311 356.084C546.404 356.113 546.513 356.128 546.636 356.128C546.858 356.128 547.055 356.107 547.225 356.066C547.395 356.02 547.564 355.967 547.734 355.908L548.112 357.604C547.813 357.792 547.479 357.941 547.11 358.053C546.747 358.164 546.313 358.22 545.81 358.22C545.452 358.22 545.109 358.158 544.781 358.035C544.459 357.912 544.175 357.728 543.929 357.481C543.683 357.229 543.486 356.916 543.34 356.541C543.193 356.166 543.123 355.729 543.129 355.231L543.155 351.197H541.846V348.895H543.164L543.182 346.715L545.915 345.414L545.897 348.895ZM551.856 354.019L551.883 354.291C551.947 354.555 552.056 354.786 552.208 354.985C552.366 355.185 552.551 355.352 552.762 355.486C552.973 355.621 553.207 355.724 553.465 355.794C553.723 355.858 553.983 355.891 554.247 355.891C554.511 355.891 554.76 355.876 554.994 355.847C555.234 355.812 555.466 355.768 555.688 355.715C555.911 355.656 556.128 355.592 556.339 355.521C556.55 355.445 556.764 355.366 556.98 355.284L557.947 357.086C557.613 357.291 557.306 357.467 557.024 357.613C556.749 357.754 556.471 357.871 556.189 357.965C555.908 358.059 555.609 358.126 555.293 358.167C554.977 358.214 554.607 358.237 554.186 358.237C553.395 358.237 552.691 358.108 552.076 357.851C551.461 357.587 550.942 357.232 550.521 356.787C550.104 356.342 549.785 355.82 549.562 355.223C549.346 354.625 549.237 353.992 549.237 353.324C549.237 352.656 549.352 352.029 549.58 351.443C549.814 350.857 550.143 350.348 550.564 349.914C550.986 349.475 551.49 349.129 552.076 348.877C552.662 348.625 553.312 348.499 554.027 348.499C554.742 348.499 555.375 348.619 555.926 348.859C556.482 349.094 556.951 349.422 557.332 349.844C557.713 350.26 558.006 350.752 558.211 351.32C558.416 351.883 558.527 352.489 558.545 353.14C558.562 353.286 558.571 353.433 558.571 353.579C558.577 353.72 558.574 353.866 558.562 354.019H551.856ZM553.957 350.696C553.629 350.696 553.348 350.737 553.113 350.819C552.885 350.896 552.691 351.004 552.533 351.145C552.375 351.279 552.249 351.435 552.155 351.61C552.062 351.786 551.988 351.971 551.936 352.164H555.741C555.7 351.965 555.642 351.777 555.565 351.602C555.489 351.426 555.384 351.271 555.249 351.136C555.114 351.001 554.941 350.896 554.73 350.819C554.525 350.737 554.268 350.696 553.957 350.696ZM568.178 352.208H565.708V351.268C565.468 351.268 565.248 351.285 565.049 351.32C564.85 351.35 564.674 351.402 564.521 351.479C564.375 351.555 564.249 351.66 564.144 351.795C564.044 351.93 563.974 352.097 563.933 352.296V355.592H565.787V358H559.846V355.592H561.208V351.303H559.863V348.895H563.915V349.536C564.173 349.331 564.463 349.173 564.785 349.062C565.107 348.95 565.459 348.895 565.84 348.895C566.227 348.895 566.625 348.897 567.035 348.903C567.445 348.909 567.826 348.912 568.178 348.912V352.208ZM573.627 348.895H575.288V351.197H573.627V355.592H575.306V358H569.654V355.592H571.017V351.197H569.637V348.895H571.017V347.383C571.017 346.85 571.11 346.381 571.298 345.977C571.485 345.572 571.734 345.232 572.045 344.957C572.361 344.682 572.725 344.474 573.135 344.333C573.545 344.192 573.976 344.122 574.427 344.122C574.761 344.122 575.06 344.148 575.323 344.201C575.587 344.248 575.818 344.31 576.018 344.386C576.217 344.462 576.384 344.544 576.519 344.632C576.659 344.72 576.771 344.802 576.853 344.878L575.842 346.732C575.707 346.633 575.555 346.554 575.385 346.495C575.215 346.437 575.007 346.407 574.761 346.407C574.603 346.407 574.453 346.434 574.312 346.486C574.178 346.539 574.058 346.615 573.952 346.715C573.853 346.814 573.773 346.94 573.715 347.093C573.656 347.239 573.627 347.412 573.627 347.611V348.895ZM582.442 357.508C582.237 357.637 582.05 357.748 581.88 357.842C581.71 357.93 581.54 358 581.37 358.053C581.2 358.111 581.024 358.152 580.843 358.176C580.661 358.205 580.462 358.22 580.245 358.22C579.7 358.22 579.211 358.146 578.777 358C578.35 357.848 577.986 357.643 577.688 357.385C577.395 357.121 577.169 356.813 577.011 356.462C576.853 356.104 576.773 355.718 576.773 355.302C576.773 354.88 576.853 354.49 577.011 354.133C577.175 353.775 577.409 353.471 577.714 353.219C578.019 352.961 578.391 352.762 578.83 352.621C579.275 352.475 579.782 352.401 580.351 352.401C580.767 352.401 581.145 352.425 581.484 352.472C581.83 352.513 582.149 352.565 582.442 352.63V352.349C582.442 352.12 582.398 351.924 582.311 351.76C582.223 351.59 582.1 351.452 581.941 351.347C581.783 351.235 581.593 351.156 581.37 351.109C581.147 351.057 580.904 351.03 580.641 351.03C580.09 351.03 579.604 351.086 579.182 351.197C578.766 351.303 578.364 351.458 577.978 351.663L577.134 349.958C577.731 349.548 578.355 349.234 579.006 349.018C579.662 348.801 580.356 348.692 581.089 348.692C581.657 348.692 582.182 348.757 582.662 348.886C583.148 349.009 583.564 349.214 583.91 349.501C584.256 349.782 584.525 350.151 584.719 350.608C584.918 351.065 585.018 351.622 585.018 352.278V355.592H586.239V358H582.442V357.508ZM580.438 356.146C580.854 356.146 581.232 356.078 581.572 355.943C581.912 355.809 582.202 355.645 582.442 355.451V354.291H580.333C580.198 354.291 580.066 354.312 579.938 354.353C579.809 354.394 579.691 354.452 579.586 354.528C579.486 354.604 579.404 354.698 579.34 354.81C579.281 354.921 579.252 355.05 579.252 355.196C579.252 355.466 579.349 355.691 579.542 355.873C579.741 356.055 580.04 356.146 580.438 356.146ZM594.914 352.041C594.662 351.725 594.381 351.487 594.07 351.329C593.76 351.165 593.394 351.095 592.972 351.118C592.632 351.095 592.321 351.142 592.04 351.259C591.765 351.376 591.524 351.54 591.319 351.751C591.12 351.962 590.965 352.214 590.854 352.507C590.742 352.794 590.687 353.119 590.687 353.482C590.687 353.805 590.745 354.109 590.862 354.396C590.979 354.684 591.138 354.933 591.337 355.144C591.542 355.349 591.782 355.51 592.058 355.627C592.339 355.744 592.644 355.814 592.972 355.838C593.247 355.814 593.496 355.759 593.719 355.671C593.947 355.577 594.149 355.46 594.325 355.319C594.501 355.173 594.65 355.012 594.773 354.836C594.902 354.654 595.002 354.484 595.072 354.326L597.489 354.994C597.39 355.346 597.217 355.712 596.971 356.093C596.73 356.474 596.414 356.822 596.021 357.139C595.635 357.449 595.172 357.707 594.633 357.912C594.1 358.117 593.49 358.22 592.805 358.22C592.107 358.22 591.466 358.094 590.88 357.842C590.294 357.584 589.79 357.235 589.368 356.796C588.946 356.356 588.615 355.841 588.375 355.249C588.141 354.657 588.023 354.021 588.023 353.342C588.023 352.668 588.144 352.044 588.384 351.47C588.63 350.89 588.967 350.386 589.395 349.958C589.822 349.524 590.329 349.188 590.915 348.947C591.507 348.707 592.148 348.599 592.84 348.622C593.332 348.599 593.81 348.654 594.272 348.789C594.735 348.924 595.175 349.126 595.591 349.396H597.34V352.041H594.914ZM600.829 354.019L600.855 354.291C600.92 354.555 601.028 354.786 601.181 354.985C601.339 355.185 601.523 355.352 601.734 355.486C601.945 355.621 602.18 355.724 602.438 355.794C602.695 355.858 602.956 355.891 603.22 355.891C603.483 355.891 603.732 355.876 603.967 355.847C604.207 355.812 604.438 355.768 604.661 355.715C604.884 355.656 605.101 355.592 605.312 355.521C605.522 355.445 605.736 355.366 605.953 355.284L606.92 357.086C606.586 357.291 606.278 357.467 605.997 357.613C605.722 357.754 605.443 357.871 605.162 357.965C604.881 358.059 604.582 358.126 604.266 358.167C603.949 358.214 603.58 358.237 603.158 358.237C602.367 358.237 601.664 358.108 601.049 357.851C600.434 357.587 599.915 357.232 599.493 356.787C599.077 356.342 598.758 355.82 598.535 355.223C598.318 354.625 598.21 353.992 598.21 353.324C598.21 352.656 598.324 352.029 598.553 351.443C598.787 350.857 599.115 350.348 599.537 349.914C599.959 349.475 600.463 349.129 601.049 348.877C601.635 348.625 602.285 348.499 603 348.499C603.715 348.499 604.348 348.619 604.898 348.859C605.455 349.094 605.924 349.422 606.305 349.844C606.686 350.26 606.979 350.752 607.184 351.32C607.389 351.883 607.5 352.489 607.518 353.14C607.535 353.286 607.544 353.433 607.544 353.579C607.55 353.72 607.547 353.866 607.535 354.019H600.829ZM602.93 350.696C602.602 350.696 602.32 350.737 602.086 350.819C601.857 350.896 601.664 351.004 601.506 351.145C601.348 351.279 601.222 351.435 601.128 351.61C601.034 351.786 600.961 351.971 600.908 352.164H604.714C604.673 351.965 604.614 351.777 604.538 351.602C604.462 351.426 604.356 351.271 604.222 351.136C604.087 351.001 603.914 350.896 603.703 350.819C603.498 350.737 603.24 350.696 602.93 350.696ZM615.929 348.895H617.748V351.197H615.911L615.894 355.047C615.894 355.27 615.911 355.451 615.946 355.592C615.981 355.727 616.031 355.835 616.096 355.917C616.166 355.999 616.248 356.055 616.342 356.084C616.436 356.113 616.544 356.128 616.667 356.128C616.89 356.128 617.086 356.107 617.256 356.066C617.426 356.02 617.596 355.967 617.766 355.908L618.144 357.604C617.845 357.792 617.511 357.941 617.142 358.053C616.778 358.164 616.345 358.22 615.841 358.22C615.483 358.22 615.141 358.158 614.812 358.035C614.49 357.912 614.206 357.728 613.96 357.481C613.714 357.229 613.518 356.916 613.371 356.541C613.225 356.166 613.154 355.729 613.16 355.231L613.187 351.197H611.877V348.895H613.195L613.213 346.715L615.946 345.414L615.929 348.895ZM619.453 353.412C619.453 352.75 619.573 352.129 619.813 351.549C620.054 350.969 620.388 350.462 620.815 350.028C621.243 349.595 621.753 349.252 622.345 349C622.937 348.748 623.587 348.622 624.296 348.622C625.005 348.622 625.655 348.748 626.247 349C626.845 349.252 627.357 349.595 627.785 350.028C628.213 350.462 628.544 350.969 628.778 351.549C629.019 352.129 629.139 352.75 629.139 353.412C629.139 354.074 629.021 354.698 628.787 355.284C628.559 355.864 628.23 356.374 627.803 356.813C627.381 357.247 626.871 357.59 626.273 357.842C625.682 358.094 625.022 358.22 624.296 358.22C623.563 358.22 622.898 358.094 622.301 357.842C621.709 357.59 621.202 357.247 620.78 356.813C620.358 356.38 620.03 355.873 619.796 355.293C619.567 354.707 619.453 354.08 619.453 353.412ZM622.081 353.412C622.081 353.758 622.14 354.077 622.257 354.37C622.374 354.657 622.532 354.906 622.731 355.117C622.937 355.328 623.171 355.492 623.435 355.609C623.704 355.727 623.991 355.785 624.296 355.785C624.606 355.785 624.894 355.729 625.157 355.618C625.427 355.501 625.658 355.337 625.852 355.126C626.051 354.915 626.206 354.666 626.317 354.379C626.429 354.086 626.484 353.764 626.484 353.412C626.484 353.049 626.429 352.721 626.317 352.428C626.206 352.135 626.051 351.886 625.852 351.681C625.658 351.476 625.427 351.32 625.157 351.215C624.894 351.104 624.606 351.051 624.296 351.057C623.991 351.051 623.704 351.104 623.435 351.215C623.171 351.32 622.937 351.476 622.731 351.681C622.532 351.886 622.374 352.135 622.257 352.428C622.14 352.721 622.081 353.049 622.081 353.412ZM634.096 344.676H639.211C639.82 344.676 640.403 344.755 640.96 344.913C641.522 345.071 642.044 345.294 642.524 345.581C643.011 345.868 643.45 346.214 643.843 346.618C644.241 347.017 644.581 347.462 644.862 347.954C645.144 348.446 645.36 348.977 645.513 349.545C645.665 350.113 645.741 350.705 645.741 351.32C645.741 351.936 645.665 352.527 645.513 353.096C645.36 353.664 645.144 354.197 644.862 354.695C644.581 355.188 644.241 355.639 643.843 356.049C643.45 356.453 643.011 356.802 642.524 357.095C642.044 357.382 641.522 357.604 640.96 357.763C640.403 357.921 639.82 358 639.211 358H634.096V355.592H635.159V347.093H634.096V344.676ZM638.077 347.093V355.592H639.193C639.668 355.592 640.116 355.48 640.538 355.258C640.96 355.035 641.326 354.733 641.637 354.353C641.947 353.966 642.193 353.515 642.375 352.999C642.557 352.478 642.647 351.918 642.647 351.32C642.647 350.729 642.557 350.175 642.375 349.659C642.193 349.144 641.947 348.695 641.637 348.314C641.326 347.934 640.96 347.635 640.538 347.418C640.116 347.201 639.668 347.093 639.193 347.093H638.077ZM652.307 355.592H652.825L651.691 354.511L650.514 355.592H651.103V358H646.813V355.592H647.719L649.978 353.377L647.886 351.303H646.813V348.895H651.103V351.303H650.689L651.753 352.243L652.772 351.303H652.289V348.895H656.569V351.303H655.567L653.467 353.386L655.69 355.592H656.596V358H652.307V355.592ZM661.799 348.895H663.46V351.197H661.799V355.592H663.478V358H657.826V355.592H659.188V351.197H657.809V348.895H659.188V347.383C659.188 346.85 659.282 346.381 659.47 345.977C659.657 345.572 659.906 345.232 660.217 344.957C660.533 344.682 660.896 344.474 661.307 344.333C661.717 344.192 662.147 344.122 662.599 344.122C662.933 344.122 663.231 344.148 663.495 344.201C663.759 344.248 663.99 344.31 664.189 344.386C664.389 344.462 664.556 344.544 664.69 344.632C664.831 344.72 664.942 344.802 665.024 344.878L664.014 346.732C663.879 346.633 663.727 346.554 663.557 346.495C663.387 346.437 663.179 346.407 662.933 346.407C662.774 346.407 662.625 346.434 662.484 346.486C662.35 346.539 662.229 346.615 662.124 346.715C662.024 346.814 661.945 346.94 661.887 347.093C661.828 347.239 661.799 347.412 661.799 347.611V348.895ZM668.276 348.895H673.031V351.303H672.003L672.97 354.546L674.842 348.895H677.417L679.307 354.836L680.467 351.303H679.491V348.895H684.246V351.303H683.024L680.59 358.035H677.962L676.055 352.226L674.112 358.035H671.555L669.296 351.303H668.276V348.895ZM693.562 352.208H691.093V351.268C690.853 351.268 690.633 351.285 690.434 351.32C690.234 351.35 690.059 351.402 689.906 351.479C689.76 351.555 689.634 351.66 689.528 351.795C689.429 351.93 689.358 352.097 689.317 352.296V355.592H691.172V358H685.23V355.592H686.593V351.303H685.248V348.895H689.3V349.536C689.558 349.331 689.848 349.173 690.17 349.062C690.492 348.95 690.844 348.895 691.225 348.895C691.611 348.895 692.01 348.897 692.42 348.903C692.83 348.909 693.211 348.912 693.562 348.912V352.208ZM695.057 348.895H699.144V355.592H700.409V358H695.057V355.592H696.428V351.303H695.057V348.895ZM696.287 345.959C696.287 345.742 696.325 345.54 696.401 345.353C696.483 345.159 696.595 344.992 696.735 344.852C696.876 344.711 697.04 344.6 697.228 344.518C697.421 344.436 697.629 344.395 697.852 344.395C698.062 344.395 698.262 344.436 698.449 344.518C698.637 344.6 698.801 344.711 698.941 344.852C699.082 344.992 699.193 345.159 699.275 345.353C699.357 345.54 699.398 345.742 699.398 345.959C699.398 346.176 699.357 346.381 699.275 346.574C699.193 346.762 699.082 346.926 698.941 347.066C698.801 347.207 698.637 347.318 698.449 347.4C698.262 347.482 698.062 347.523 697.852 347.523C697.629 347.523 697.421 347.482 697.228 347.4C697.04 347.318 696.876 347.207 696.735 347.066C696.595 346.926 696.483 346.762 696.401 346.574C696.325 346.381 696.287 346.176 696.287 345.959ZM705.437 348.895H707.256V351.197H705.419L705.401 355.047C705.401 355.27 705.419 355.451 705.454 355.592C705.489 355.727 705.539 355.835 705.604 355.917C705.674 355.999 705.756 356.055 705.85 356.084C705.943 356.113 706.052 356.128 706.175 356.128C706.397 356.128 706.594 356.107 706.764 356.066C706.934 356.02 707.104 355.967 707.273 355.908L707.651 357.604C707.353 357.792 707.019 357.941 706.649 358.053C706.286 358.164 705.853 358.22 705.349 358.22C704.991 358.22 704.648 358.158 704.32 358.035C703.998 357.912 703.714 357.728 703.468 357.481C703.222 357.229 703.025 356.916 702.879 356.541C702.732 356.166 702.662 355.729 702.668 355.231L702.694 351.197H701.385V348.895H702.703L702.721 346.715L705.454 345.414L705.437 348.895ZM712.468 348.895H714.287V351.197H712.45L712.433 355.047C712.433 355.27 712.45 355.451 712.485 355.592C712.521 355.727 712.57 355.835 712.635 355.917C712.705 355.999 712.787 356.055 712.881 356.084C712.975 356.113 713.083 356.128 713.206 356.128C713.429 356.128 713.625 356.107 713.795 356.066C713.965 356.02 714.135 355.967 714.305 355.908L714.683 357.604C714.384 357.792 714.05 357.941 713.681 358.053C713.317 358.164 712.884 358.22 712.38 358.22C712.022 358.22 711.68 358.158 711.352 358.035C711.029 357.912 710.745 357.728 710.499 357.481C710.253 357.229 710.057 356.916 709.91 356.541C709.764 356.166 709.693 355.729 709.699 355.231L709.726 351.197H708.416V348.895H709.734L709.752 346.715L712.485 345.414L712.468 348.895ZM718.427 354.019L718.453 354.291C718.518 354.555 718.626 354.786 718.778 354.985C718.937 355.185 719.121 355.352 719.332 355.486C719.543 355.621 719.777 355.724 720.035 355.794C720.293 355.858 720.554 355.891 720.817 355.891C721.081 355.891 721.33 355.876 721.564 355.847C721.805 355.812 722.036 355.768 722.259 355.715C722.481 355.656 722.698 355.592 722.909 355.521C723.12 355.445 723.334 355.366 723.551 355.284L724.518 357.086C724.184 357.291 723.876 357.467 723.595 357.613C723.319 357.754 723.041 357.871 722.76 357.965C722.479 358.059 722.18 358.126 721.863 358.167C721.547 358.214 721.178 358.237 720.756 358.237C719.965 358.237 719.262 358.108 718.646 357.851C718.031 357.587 717.513 357.232 717.091 356.787C716.675 356.342 716.355 355.82 716.133 355.223C715.916 354.625 715.808 353.992 715.808 353.324C715.808 352.656 715.922 352.029 716.15 351.443C716.385 350.857 716.713 350.348 717.135 349.914C717.557 349.475 718.061 349.129 718.646 348.877C719.232 348.625 719.883 348.499 720.598 348.499C721.312 348.499 721.945 348.619 722.496 348.859C723.053 349.094 723.521 349.422 723.902 349.844C724.283 350.26 724.576 350.752 724.781 351.32C724.986 351.883 725.098 352.489 725.115 353.14C725.133 353.286 725.142 353.433 725.142 353.579C725.147 353.72 725.145 353.866 725.133 354.019H718.427ZM720.527 350.696C720.199 350.696 719.918 350.737 719.684 350.819C719.455 350.896 719.262 351.004 719.104 351.145C718.945 351.279 718.819 351.435 718.726 351.61C718.632 351.786 718.559 351.971 718.506 352.164H722.312C722.271 351.965 722.212 351.777 722.136 351.602C722.06 351.426 721.954 351.271 721.819 351.136C721.685 351.001 721.512 350.896 721.301 350.819C721.096 350.737 720.838 350.696 720.527 350.696ZM733.975 352.762C733.975 352.252 733.84 351.854 733.57 351.566C733.301 351.273 732.943 351.127 732.498 351.127C732.193 351.127 731.886 351.194 731.575 351.329C731.265 351.464 730.963 351.716 730.67 352.085V355.592H732.146V358H726.486V355.592H727.822V351.303H726.504V348.895H730.652V349.694C731.033 349.396 731.458 349.161 731.927 348.991C732.401 348.815 732.899 348.728 733.421 348.728C734.517 348.728 735.36 349.035 735.952 349.65C736.544 350.26 736.84 351.153 736.84 352.331V355.592H738.132V358H733.975V352.762ZM742.922 348.895H747.009V355.592H748.274V358H742.922V355.592H744.293V351.303H742.922V348.895ZM744.152 345.959C744.152 345.742 744.19 345.54 744.267 345.353C744.349 345.159 744.46 344.992 744.601 344.852C744.741 344.711 744.905 344.6 745.093 344.518C745.286 344.436 745.494 344.395 745.717 344.395C745.928 344.395 746.127 344.436 746.314 344.518C746.502 344.6 746.666 344.711 746.807 344.852C746.947 344.992 747.059 345.159 747.141 345.353C747.223 345.54 747.264 345.742 747.264 345.959C747.264 346.176 747.223 346.381 747.141 346.574C747.059 346.762 746.947 346.926 746.807 347.066C746.666 347.207 746.502 347.318 746.314 347.4C746.127 347.482 745.928 347.523 745.717 347.523C745.494 347.523 745.286 347.482 745.093 347.4C744.905 347.318 744.741 347.207 744.601 347.066C744.46 346.926 744.349 346.762 744.267 346.574C744.19 346.381 744.152 346.176 744.152 345.959ZM757.354 352.762C757.354 352.252 757.219 351.854 756.949 351.566C756.68 351.273 756.322 351.127 755.877 351.127C755.572 351.127 755.265 351.194 754.954 351.329C754.644 351.464 754.342 351.716 754.049 352.085V355.592H755.525V358H749.865V355.592H751.201V351.303H749.883V348.895H754.031V349.694C754.412 349.396 754.837 349.161 755.306 348.991C755.78 348.815 756.278 348.728 756.8 348.728C757.896 348.728 758.739 349.035 759.331 349.65C759.923 350.26 760.219 351.153 760.219 352.331V355.592H761.511V358H757.354V352.762ZM768.876 355.592H770.256V347.005H768.639V348.728H765.773V344.676H777.894V348.728H775.011V347.005H773.174V355.592H774.58V358H768.876V355.592ZM778.614 348.895H783.079V351.303H782.376L783.686 354.713L785.03 351.303H784.248V348.895H788.713V351.303H787.72L784.195 359.731H785.76V362.14H780.108V359.731H781.699L782.385 358L779.537 351.303H778.614V348.895ZM790.128 348.895H794.101V349.026C794.382 348.903 794.669 348.807 794.962 348.736C795.255 348.66 795.557 348.622 795.867 348.622C796.535 348.622 797.156 348.748 797.73 349C798.305 349.252 798.803 349.595 799.225 350.028C799.646 350.462 799.975 350.969 800.209 351.549C800.449 352.129 800.569 352.744 800.569 353.395C800.569 354.051 800.452 354.669 800.218 355.249C799.989 355.829 799.667 356.336 799.251 356.77C798.835 357.197 798.337 357.537 797.757 357.789C797.183 358.035 796.553 358.158 795.867 358.158C795.48 358.158 795.12 358.12 794.786 358.044C794.452 357.974 794.13 357.871 793.819 357.736V359.731H795.56V362.14H789.618V359.731H791.112V351.303H790.128V348.895ZM795.674 351.048C795.305 351.048 794.959 351.145 794.637 351.338C794.314 351.531 794.042 351.804 793.819 352.155V354.722C794.007 355.021 794.262 355.264 794.584 355.451C794.906 355.639 795.27 355.732 795.674 355.732C795.973 355.732 796.257 355.677 796.526 355.565C796.796 355.448 797.03 355.287 797.229 355.082C797.429 354.871 797.587 354.625 797.704 354.344C797.821 354.057 797.88 353.746 797.88 353.412C797.88 353.043 797.821 352.712 797.704 352.419C797.593 352.126 797.438 351.88 797.238 351.681C797.039 351.476 796.805 351.32 796.535 351.215C796.266 351.104 795.979 351.048 795.674 351.048ZM804.173 354.019L804.199 354.291C804.264 354.555 804.372 354.786 804.524 354.985C804.683 355.185 804.867 355.352 805.078 355.486C805.289 355.621 805.523 355.724 805.781 355.794C806.039 355.858 806.3 355.891 806.563 355.891C806.827 355.891 807.076 355.876 807.311 355.847C807.551 355.812 807.782 355.768 808.005 355.715C808.228 355.656 808.444 355.592 808.655 355.521C808.866 355.445 809.08 355.366 809.297 355.284L810.264 357.086C809.93 357.291 809.622 357.467 809.341 357.613C809.065 357.754 808.787 357.871 808.506 357.965C808.225 358.059 807.926 358.126 807.609 358.167C807.293 358.214 806.924 358.237 806.502 358.237C805.711 358.237 805.008 358.108 804.393 357.851C803.777 357.587 803.259 357.232 802.837 356.787C802.421 356.342 802.102 355.82 801.879 355.223C801.662 354.625 801.554 353.992 801.554 353.324C801.554 352.656 801.668 352.029 801.896 351.443C802.131 350.857 802.459 350.348 802.881 349.914C803.303 349.475 803.807 349.129 804.393 348.877C804.979 348.625 805.629 348.499 806.344 348.499C807.059 348.499 807.691 348.619 808.242 348.859C808.799 349.094 809.268 349.422 809.648 349.844C810.029 350.26 810.322 350.752 810.527 351.32C810.732 351.883 810.844 352.489 810.861 353.14C810.879 353.286 810.888 353.433 810.888 353.579C810.894 353.72 810.891 353.866 810.879 354.019H804.173ZM806.273 350.696C805.945 350.696 805.664 350.737 805.43 350.819C805.201 350.896 805.008 351.004 804.85 351.145C804.691 351.279 804.565 351.435 804.472 351.61C804.378 351.786 804.305 351.971 804.252 352.164H808.058C808.017 351.965 807.958 351.777 807.882 351.602C807.806 351.426 807.7 351.271 807.565 351.136C807.431 351.001 807.258 350.896 807.047 350.819C806.842 350.737 806.584 350.696 806.273 350.696ZM818.93 348.429C818.9 348.224 818.827 348.03 818.71 347.849C818.599 347.667 818.452 347.512 818.271 347.383C818.095 347.248 817.893 347.143 817.664 347.066C817.441 346.99 817.207 346.952 816.961 346.952C816.738 346.952 816.53 346.976 816.337 347.022C816.144 347.069 815.974 347.143 815.827 347.242C815.687 347.336 815.572 347.459 815.484 347.611C815.402 347.764 815.361 347.945 815.361 348.156C815.361 348.42 815.417 348.631 815.528 348.789C815.646 348.941 815.792 349.067 815.968 349.167C816.149 349.267 816.349 349.346 816.565 349.404C816.782 349.463 816.993 349.527 817.198 349.598L819.615 350.406C819.949 350.523 820.263 350.685 820.556 350.89C820.849 351.095 821.101 351.344 821.312 351.637C821.528 351.93 821.698 352.267 821.821 352.647C821.944 353.028 822.006 353.456 822.006 353.931C822.006 354.575 821.886 355.164 821.646 355.697C821.411 356.23 821.08 356.688 820.652 357.068C820.225 357.449 819.712 357.745 819.114 357.956C818.517 358.167 817.854 358.272 817.128 358.272C816.618 358.272 816.135 358.214 815.678 358.097C815.227 357.985 814.813 357.821 814.438 357.604C814.063 357.388 813.735 357.13 813.454 356.831C813.173 356.526 812.953 356.184 812.795 355.803H811.89V353.157H815.071V353.702C815.071 353.966 815.112 354.209 815.194 354.432C815.282 354.654 815.411 354.848 815.581 355.012C815.751 355.176 815.965 355.305 816.223 355.398C816.48 355.486 816.782 355.53 817.128 355.53C817.655 355.53 818.057 355.41 818.332 355.17C818.607 354.924 818.745 354.584 818.745 354.15C818.745 353.928 818.695 353.743 818.596 353.597C818.502 353.444 818.379 353.318 818.227 353.219C818.074 353.113 817.904 353.025 817.717 352.955C817.529 352.885 817.345 352.82 817.163 352.762L815.15 352.111C814.77 351.994 814.4 351.83 814.043 351.619C813.691 351.408 813.378 351.145 813.103 350.828C812.833 350.512 812.616 350.143 812.452 349.721C812.294 349.293 812.215 348.807 812.215 348.262C812.215 347.629 812.332 347.066 812.566 346.574C812.801 346.076 813.129 345.657 813.551 345.317C813.973 344.978 814.474 344.72 815.054 344.544C815.634 344.368 816.27 344.28 816.961 344.28C817.506 344.28 818.01 344.345 818.473 344.474C818.936 344.597 819.349 344.764 819.712 344.975C820.081 345.186 820.392 345.429 820.644 345.704C820.901 345.974 821.098 346.255 821.232 346.548H822.111V349.202H818.93V348.429ZM830.004 352.041C829.752 351.725 829.471 351.487 829.16 351.329C828.85 351.165 828.483 351.095 828.062 351.118C827.722 351.095 827.411 351.142 827.13 351.259C826.854 351.376 826.614 351.54 826.409 351.751C826.21 351.962 826.055 352.214 825.943 352.507C825.832 352.794 825.776 353.119 825.776 353.482C825.776 353.805 825.835 354.109 825.952 354.396C826.069 354.684 826.228 354.933 826.427 355.144C826.632 355.349 826.872 355.51 827.147 355.627C827.429 355.744 827.733 355.814 828.062 355.838C828.337 355.814 828.586 355.759 828.809 355.671C829.037 355.577 829.239 355.46 829.415 355.319C829.591 355.173 829.74 355.012 829.863 354.836C829.992 354.654 830.092 354.484 830.162 354.326L832.579 354.994C832.479 355.346 832.307 355.712 832.061 356.093C831.82 356.474 831.504 356.822 831.111 357.139C830.725 357.449 830.262 357.707 829.723 357.912C829.189 358.117 828.58 358.22 827.895 358.22C827.197 358.22 826.556 358.094 825.97 357.842C825.384 357.584 824.88 357.235 824.458 356.796C824.036 356.356 823.705 355.841 823.465 355.249C823.23 354.657 823.113 354.021 823.113 353.342C823.113 352.668 823.233 352.044 823.474 351.47C823.72 350.89 824.057 350.386 824.484 349.958C824.912 349.524 825.419 349.188 826.005 348.947C826.597 348.707 827.238 348.599 827.93 348.622C828.422 348.599 828.899 348.654 829.362 348.789C829.825 348.924 830.265 349.126 830.681 349.396H832.43V352.041H830.004ZM841.816 352.208H839.347V351.268C839.106 351.268 838.887 351.285 838.688 351.32C838.488 351.35 838.312 351.402 838.16 351.479C838.014 351.555 837.888 351.66 837.782 351.795C837.683 351.93 837.612 352.097 837.571 352.296V355.592H839.426V358H833.484V355.592H834.847V351.303H833.502V348.895H837.554V349.536C837.812 349.331 838.102 349.173 838.424 349.062C838.746 348.95 839.098 348.895 839.479 348.895C839.865 348.895 840.264 348.897 840.674 348.903C841.084 348.909 841.465 348.912 841.816 348.912V352.208ZM843.311 348.895H847.397V355.592H848.663V358H843.311V355.592H844.682V351.303H843.311V348.895ZM844.541 345.959C844.541 345.742 844.579 345.54 844.655 345.353C844.737 345.159 844.849 344.992 844.989 344.852C845.13 344.711 845.294 344.6 845.481 344.518C845.675 344.436 845.883 344.395 846.105 344.395C846.316 344.395 846.516 344.436 846.703 344.518C846.891 344.6 847.055 344.711 847.195 344.852C847.336 344.992 847.447 345.159 847.529 345.353C847.611 345.54 847.652 345.742 847.652 345.959C847.652 346.176 847.611 346.381 847.529 346.574C847.447 346.762 847.336 346.926 847.195 347.066C847.055 347.207 846.891 347.318 846.703 347.4C846.516 347.482 846.316 347.523 846.105 347.523C845.883 347.523 845.675 347.482 845.481 347.4C845.294 347.318 845.13 347.207 844.989 347.066C844.849 346.926 844.737 346.762 844.655 346.574C844.579 346.381 844.541 346.176 844.541 345.959ZM850.597 348.895H854.569V349.026C854.851 348.903 855.138 348.807 855.431 348.736C855.724 348.66 856.025 348.622 856.336 348.622C857.004 348.622 857.625 348.748 858.199 349C858.773 349.252 859.271 349.595 859.693 350.028C860.115 350.462 860.443 350.969 860.678 351.549C860.918 352.129 861.038 352.744 861.038 353.395C861.038 354.051 860.921 354.669 860.687 355.249C860.458 355.829 860.136 356.336 859.72 356.77C859.304 357.197 858.806 357.537 858.226 357.789C857.651 358.035 857.021 358.158 856.336 358.158C855.949 358.158 855.589 358.12 855.255 358.044C854.921 357.974 854.599 357.871 854.288 357.736V359.731H856.028V362.14H850.087V359.731H851.581V351.303H850.597V348.895ZM856.143 351.048C855.773 351.048 855.428 351.145 855.105 351.338C854.783 351.531 854.511 351.804 854.288 352.155V354.722C854.476 355.021 854.73 355.264 855.053 355.451C855.375 355.639 855.738 355.732 856.143 355.732C856.441 355.732 856.726 355.677 856.995 355.565C857.265 355.448 857.499 355.287 857.698 355.082C857.897 354.871 858.056 354.625 858.173 354.344C858.29 354.057 858.349 353.746 858.349 353.412C858.349 353.043 858.29 352.712 858.173 352.419C858.062 352.126 857.906 351.88 857.707 351.681C857.508 351.476 857.273 351.32 857.004 351.215C856.734 351.104 856.447 351.048 856.143 351.048ZM865.714 348.895H867.533V351.197H865.696L865.679 355.047C865.679 355.27 865.696 355.451 865.731 355.592C865.767 355.727 865.816 355.835 865.881 355.917C865.951 355.999 866.033 356.055 866.127 356.084C866.221 356.113 866.329 356.128 866.452 356.128C866.675 356.128 866.871 356.107 867.041 356.066C867.211 356.02 867.381 355.967 867.551 355.908L867.929 357.604C867.63 357.792 867.296 357.941 866.927 358.053C866.563 358.164 866.13 358.22 865.626 358.22C865.269 358.22 864.926 358.158 864.598 358.035C864.275 357.912 863.991 357.728 863.745 357.481C863.499 357.229 863.303 356.916 863.156 356.541C863.01 356.166 862.939 355.729 862.945 355.231L862.972 351.197H861.662V348.895H862.98L862.998 346.715L865.731 345.414L865.714 348.895ZM869.221 356.576C869.221 356.342 869.262 356.122 869.344 355.917C869.432 355.712 869.552 355.53 869.704 355.372C869.862 355.214 870.047 355.091 870.258 355.003C870.469 354.909 870.694 354.862 870.935 354.862C871.163 354.862 871.38 354.909 871.585 355.003C871.796 355.091 871.978 355.214 872.13 355.372C872.288 355.524 872.411 355.706 872.499 355.917C872.587 356.128 872.631 356.348 872.631 356.576C872.631 356.811 872.584 357.033 872.49 357.244C872.402 357.455 872.282 357.637 872.13 357.789C871.978 357.941 871.799 358.062 871.594 358.149C871.389 358.243 871.169 358.29 870.935 358.29C870.688 358.29 870.46 358.243 870.249 358.149C870.044 358.062 869.862 357.941 869.704 357.789C869.552 357.637 869.432 357.458 869.344 357.253C869.262 357.042 869.221 356.816 869.221 356.576Z" fill="#6610F2" fill-opacity="0.8"/>
<defs>
<linearGradient id="paint0_linear_0_1" x1="1280" y1="-7.62939e-05" x2="1.90735e-05" y2="640" gradientUnits="userSpaceOnUse">
<stop stop-color="#BC67FF" stop-opacity="0.87"/>
<stop offset="1" stop-color="#35FFE7" stop-opacity="0"/>
</linearGradient>
</defs>
</svg>
