<svg width="159" height="205" viewBox="0 0 159 205" fill="none" xmlns="http://www.w3.org/2000/svg">
<path d="M64.8281 204.75V196.524C64.8281 181.496 78.1985 170.618 90.7031 162.281C97.7344 157.5 103.078 150.469 106.734 141.188C110.391 131.812 158.759 109.906 158.759 96.5L158.766 97.875C158.766 87.75 111.188 78.5625 109.125 70.875C107.062 63.0938 104.016 56.5781 99.9844 51.3281C95.9531 46.0781 90.9375 42.1406 84.9375 39.5156C74.3793 34.8231 64.5469 26.2118 64.5469 14.6578V0C78.4219 0 91.0781 2.34375 102.516 7.03125C114.047 11.7188 123.984 18.4219 132.328 27.1406C140.766 35.8594 147.281 46.1719 151.875 58.0781C156.469 69.9844 158.766 83.25 158.766 97.875V107.016C158.766 121.547 156.469 134.812 151.875 146.812C147.281 158.719 140.766 169.031 132.328 177.75C123.984 186.375 114.094 193.031 102.656 197.719C91.2188 202.406 78.6094 204.75 64.8281 204.75ZM22.9219 0C35.5813 0 45.8438 10.2625 45.8438 22.9219V181.828C45.8438 194.488 35.5813 204.75 22.9219 204.75C10.2625 204.75 0 194.488 0 181.828V22.9219C0 10.2625 10.2625 0 22.9219 0Z" fill="#4565D8"/>
</svg>
