<svg width="290" height="290" viewBox="0 0 80 103" fill="none" xmlns="http://www.w3.org/2000/svg">
<path d="M32.415 102.378V98.2648C32.415 90.7503 39.1003 85.3112 45.3528 81.1429C48.8685 78.7522 51.5405 75.2365 53.3687 70.5957C55.1968 65.9081 79.385 60.2126 79.385 53.5093V48.9388C79.385 43.8762 55.5953 39.2823 54.564 35.4385C53.5327 31.5477 52.0092 28.2898 49.9936 25.6648C47.9779 23.0397 45.47 21.0709 42.4699 19.7584C37.1907 17.412 32.2743 13.1062 32.2743 7.3291V0C39.212 0 45.5403 1.17191 51.2592 3.51572C57.025 5.85954 61.9939 9.21119 66.1659 13.5707C70.3848 17.9302 73.6427 23.0866 75.9396 29.0399C78.2365 34.9932 79.385 41.6261 79.385 48.9388V53.5093C79.385 60.7751 78.2365 67.4081 75.9396 73.4083C73.6427 79.3616 70.3848 84.518 66.1659 88.8774C61.9939 93.1901 57.0484 96.5183 51.3295 98.8621C45.6106 101.206 39.3058 102.378 32.415 102.378ZM11.4613 0C17.7911 0 22.9225 5.13138 22.9225 11.4613V90.9166C22.9225 97.2465 17.7911 102.378 11.4613 102.378C5.13138 102.378 0 97.2464 0 90.9166V11.4612C0 5.13136 5.13138 0 11.4613 0Z" fill="#4caf50"/>
</svg>
