<svg transform="scale(1, -1)" width="2160" height="2160" viewBox="-100 -100 200 200" xmlns="http://www.w3.org/2000/svg">
<line x1="0" y1="0" x2="20" y2="20" stroke="#00ff00" stroke-width="1" vector-effect="non-scaling-stroke" />
<line x1="0" y1="2.5" x2="20" y2="2.5" stroke="#00ff00" stroke-width="1" vector-effect="non-scaling-stroke" />
<line x1="0" y1="5" x2="5" y2="10" stroke="#00ff00" stroke-width="1" vector-effect="non-scaling-stroke" />
<path d="M -3.5355339059327373 3.5355339059327378 L -2.0623947784607632 5.597928684393501 L -1.4731391274719736 5.008673033404713 L -1.4731391274719736 5.008673033404713 Z" fill="#0000ff" />
<path d="M 16.464466094067262 23.535533905932738 L 14.991326966595288 21.473139127471974 L 14.402071315606499 22.062394778460764 L 14.402071315606499 22.062394778460764 Z" fill="#0000ff" />
<line x1="-1.7677669529663687" y1="5.303300858899107" x2="14.696699141100893" y2="21.76776695296637" stroke="#0000ff" stroke-width="1" vector-effect="non-scaling-stroke" />
<line x1="-0.44194173824159216" y1="0.4419417382415922" x2="-4.419417382415921" y2="4.419417382415922" stroke="#0000ff" stroke-width="1" vector-effect="non-scaling-stroke" />
<line x1="19.558058261758408" y1="20.441941738241592" x2="15.580582617584078" y2="24.419417382415922" stroke="#0000ff" stroke-width="1" vector-effect="non-scaling-stroke" />
<text x="6.464466094067262" y="-14.785533905932738" font-size="2.5px" transform="rotate(45,6.464466094067262,14.785533905932738) scale(1, -1)" fill="#0000ff" text-anchor="middle" >28.28</text>
<path d="M 16.37529972358512 4.994606250458694 A 19.03943276465977 19.03943276465977 0 0 1 12.610805427565294 14.082899435385912" fill="transparent" stroke="#0000ff" stroke-width="1" vector-effect="non-scaling-stroke" />
<path d="M 16.53943276465977 2.5 L 15.959532015175336 4.967250743612919 L 16.7910674319949 5.02196175730447 L 16.7910674319949 5.02196175730447 Z" fill="#0000ff" />
<path d="M 10.962912017836262 15.96291201783626 L 12.924140857973685 14.357548337007417 L 12.297469997156902 13.808250533764406 L 12.297469997156902 13.808250533764406 Z" fill="#0000ff" />
<text x="16.244991657533056" y="-10.264429771120714" font-size="2.5px" transform="rotate(-67.5,16.244991657533056,10.264429771120714) scale(1, -1)" fill="#0000ff" text-anchor="middle" >45.00°</text>
<line x1="5.441941738241592" y1="10.441941738241592" x2="11.846795494319446" y2="16.846795494319444" stroke="#0000ff" stroke-width="1" vector-effect="non-scaling-stroke" />
</svg>