<svg width="300" height="300" viewBox="0 0 300 300" fill="none" xmlns="http://www.w3.org/2000/svg">
<circle cx="150" cy="150" r="150" fill="white"/>
<path d="M23.7656 88.4062H64.6875C69.5625 88.4062 74.2266 89.0391 78.6797 90.3047C83.1797 91.5703 87.3516 93.3516 91.1953 95.6484C95.0859 97.9453 98.6016 100.711 101.742 103.945C104.93 107.133 107.648 110.695 109.898 114.633C112.148 118.57 113.883 122.812 115.102 127.359C116.32 131.906 116.93 136.641 116.93 141.562C116.93 146.484 116.32 151.219 115.102 155.766C113.883 160.312 112.148 164.578 109.898 168.562C107.648 172.5 104.93 176.109 101.742 179.391C98.6016 182.625 95.0859 185.414 91.1953 187.758C87.3516 190.055 83.1797 191.836 78.6797 193.102C74.2266 194.367 69.5625 195 64.6875 195H23.7656V175.734H32.2734V107.742H23.7656V88.4062ZM55.6172 107.742V175.734H64.5469C68.3438 175.734 71.9297 174.844 75.3047 173.062C78.6797 171.281 81.6094 168.867 84.0938 165.82C86.5781 162.727 88.5469 159.117 90 154.992C91.4531 150.82 92.1797 146.344 92.1797 141.562C92.1797 136.828 91.4531 132.398 90 128.273C88.5469 124.148 86.5781 120.562 84.0938 117.516C81.6094 114.469 78.6797 112.078 75.3047 110.344C71.9297 108.609 68.3438 107.742 64.5469 107.742H55.6172ZM169.453 175.734H173.602L164.531 167.086L155.109 175.734H159.82V195H125.508V175.734H132.75L150.82 158.016L134.086 141.422H125.508V122.156H159.82V141.422H156.516L165.023 148.945L173.18 141.422H169.312V122.156H203.555V141.422H195.539L178.734 158.086L196.523 175.734H203.766V195H169.453V175.734ZM245.391 122.156H258.68V140.578H245.391V175.734H258.82V195H213.609V175.734H224.508V140.578H213.469V122.156H224.508V110.062C224.508 105.797 225.258 102.047 226.758 98.8125C228.258 95.5781 230.25 92.8594 232.734 90.6562C235.266 88.4531 238.172 86.7891 241.453 85.6641C244.734 84.5391 248.18 83.9766 251.789 83.9766C254.461 83.9766 256.852 84.1875 258.961 84.6094C261.07 84.9844 262.922 85.4766 264.516 86.0859C266.109 86.6953 267.445 87.3516 268.523 88.0547C269.648 88.7578 270.539 89.4141 271.195 90.0234L263.109 104.859C262.031 104.062 260.812 103.43 259.453 102.961C258.094 102.492 256.43 102.258 254.461 102.258C253.195 102.258 252 102.469 250.875 102.891C249.797 103.312 248.836 103.922 247.992 104.719C247.195 105.516 246.562 106.523 246.094 107.742C245.625 108.914 245.391 110.297 245.391 111.891V122.156Z" fill="#6610F2"/>
</svg>
