<svg width="166" height="75" viewBox="0 0 166 75" fill="none" xmlns="http://www.w3.org/2000/svg">
<path d="M0.84375 3.9375H28.125C31.375 3.9375 34.4844 4.35938 37.4531 5.20312C40.4531 6.04688 43.2344 7.23437 45.7969 8.76562C48.3906 10.2969 50.7344 12.1406 52.8281 14.2969C54.9531 16.4219 56.7656 18.7969 58.2656 21.4219C59.7656 24.0469 60.9219 26.875 61.7344 29.9062C62.5469 32.9375 62.9531 36.0938 62.9531 39.375C62.9531 42.6562 62.5469 45.8125 61.7344 48.8438C60.9219 51.875 59.7656 54.7188 58.2656 57.375C56.7656 60 54.9531 62.4062 52.8281 64.5938C50.7344 66.75 48.3906 68.6094 45.7969 70.1719C43.2344 71.7031 40.4531 72.8906 37.4531 73.7344C34.4844 74.5781 31.375 75 28.125 75H0.84375V62.1562H6.51562V16.8281H0.84375V3.9375ZM22.0781 16.8281V62.1562H28.0312C30.5625 62.1562 32.9531 61.5625 35.2031 60.375C37.4531 59.1875 39.4062 57.5781 41.0625 55.5469C42.7188 53.4844 44.0312 51.0781 45 48.3281C45.9688 45.5469 46.4531 42.5625 46.4531 39.375C46.4531 36.2188 45.9688 33.2656 45 30.5156C44.0312 27.7656 42.7188 25.375 41.0625 23.3438C39.4062 21.3125 37.4531 19.7188 35.2031 18.5625C32.9531 17.4062 30.5625 16.8281 28.0312 16.8281H22.0781ZM97.9688 62.1562H100.734L94.6875 56.3906L88.4062 62.1562H91.5469V75H68.6719V62.1562H73.5L85.5469 50.3438L74.3906 39.2812H68.6719V26.4375H91.5469V39.2812H89.3438L95.0156 44.2969L100.453 39.2812H97.875V26.4375H120.703V39.2812H115.359L104.156 50.3906L116.016 62.1562H120.844V75H97.9688V62.1562ZM148.594 26.4375H157.453V38.7188H148.594V62.1562H157.547V75H127.406V62.1562H134.672V38.7188H127.312V26.4375H134.672V18.375C134.672 15.5312 135.172 13.0312 136.172 10.875C137.172 8.71875 138.5 6.90625 140.156 5.4375C141.844 3.96875 143.781 2.85938 145.969 2.10938C148.156 1.35938 150.453 0.984375 152.859 0.984375C154.641 0.984375 156.234 1.125 157.641 1.40625C159.047 1.65625 160.281 1.98437 161.344 2.39062C162.406 2.79688 163.297 3.23438 164.016 3.70312C164.766 4.17188 165.359 4.60937 165.797 5.01562L160.406 14.9062C159.688 14.375 158.875 13.9531 157.969 13.6406C157.062 13.3281 155.953 13.1719 154.641 13.1719C153.797 13.1719 153 13.3125 152.25 13.5938C151.531 13.875 150.891 14.2812 150.328 14.8125C149.797 15.3438 149.375 16.0156 149.062 16.8281C148.75 17.6094 148.594 18.5312 148.594 19.5938V26.4375Z" fill="#6610f2"/>
</svg>
