<svg width="249" height="112" viewBox="0 0 249 112" fill="none" xmlns="http://www.w3.org/2000/svg">
<path d="M0.765625 5.40625H41.6875C46.5625 5.40625 51.2266 6.03906 55.6797 7.30469C60.1797 8.57031 64.3516 10.3516 68.1953 12.6484C72.0859 14.9453 75.6016 17.7109 78.7422 20.9453C81.9297 24.1328 84.6484 27.6953 86.8984 31.6328C89.1484 35.5703 90.8828 39.8125 92.1016 44.3594C93.3203 48.9062 93.9297 53.6406 93.9297 58.5625C93.9297 63.4844 93.3203 68.2188 92.1016 72.7656C90.8828 77.3125 89.1484 81.5781 86.8984 85.5625C84.6484 89.5 81.9297 93.1094 78.7422 96.3906C75.6016 99.625 72.0859 102.414 68.1953 104.758C64.3516 107.055 60.1797 108.836 55.6797 110.102C51.2266 111.367 46.5625 112 41.6875 112H0.765625V92.7344H9.27344V24.7422H0.765625V5.40625ZM32.6172 24.7422V92.7344H41.5469C45.3438 92.7344 48.9297 91.8438 52.3047 90.0625C55.6797 88.2812 58.6094 85.8672 61.0938 82.8203C63.5781 79.7266 65.5469 76.1172 67 71.9922C68.4531 67.8203 69.1797 63.3438 69.1797 58.5625C69.1797 53.8281 68.4531 49.3984 67 45.2734C65.5469 41.1484 63.5781 37.5625 61.0938 34.5156C58.6094 31.4688 55.6797 29.0781 52.3047 27.3438C48.9297 25.6094 45.3438 24.7422 41.5469 24.7422H32.6172Z" fill="#6610F2"/>
<path d="M146.453 92.7344H150.602L141.531 84.0859L132.109 92.7344H136.82V112H102.508V92.7344H109.75L127.82 75.0156L111.086 58.4219H102.508V39.1562H136.82V58.4219H133.516L142.023 65.9453L150.18 58.4219H146.312V39.1562H180.555V58.4219H172.539L155.734 75.0859L173.523 92.7344H180.766V112H146.453V92.7344ZM222.391 39.1562H235.68V57.5781H222.391V92.7344H235.82V112H190.609V92.7344H201.508V57.5781H190.469V39.1562H201.508V27.0625C201.508 22.7969 202.258 19.0469 203.758 15.8125C205.258 12.5781 207.25 9.85937 209.734 7.65625C212.266 5.45313 215.172 3.78906 218.453 2.66406C221.734 1.53906 225.18 0.976562 228.789 0.976562C231.461 0.976562 233.852 1.1875 235.961 1.60938C238.07 1.98437 239.922 2.47656 241.516 3.08594C243.109 3.69531 244.445 4.35156 245.523 5.05469C246.648 5.75781 247.539 6.41406 248.195 7.02344L240.109 21.8594C239.031 21.0625 237.812 20.4297 236.453 19.9609C235.094 19.4922 233.43 19.2578 231.461 19.2578C230.195 19.2578 229 19.4688 227.875 19.8906C226.797 20.3125 225.836 20.9219 224.992 21.7188C224.195 22.5156 223.562 23.5234 223.094 24.7422C222.625 25.9141 222.391 27.2969 222.391 28.8906V39.1562Z" fill="black"/>
</svg>
