<svg width="160" height="206" viewBox="0 0 160 206" fill="none" xmlns="http://www.w3.org/2000/svg">
<path d="M65.3281 205.25V197.024C65.3281 181.996 78.6985 171.118 91.2031 162.781V162.781C98.2344 158 103.578 150.969 107.234 141.688C110.891 132.312 159.266 120.922 159.266 107.516V98.375C159.266 88.25 111.688 79.0625 109.625 71.375C107.562 63.5938 104.516 57.0781 100.484 51.8281C96.4531 46.5781 91.4375 42.6406 85.4375 40.0156V40.0156C74.8793 35.3231 65.0469 26.7118 65.0469 15.1578V0.5C78.9219 0.5 91.5781 2.84375 103.016 7.53125C114.547 12.2188 124.484 18.9219 132.828 27.6406C141.266 36.3594 147.781 46.6719 152.375 58.5781C156.969 70.4844 159.266 83.75 159.266 98.375V107.516C159.266 122.047 156.969 135.312 152.375 147.312C147.781 159.219 141.266 169.531 132.828 178.25C124.484 186.875 114.594 193.531 103.156 198.219C91.7188 202.906 79.1094 205.25 65.3281 205.25ZM23.4219 0.5C36.0813 0.5 46.3438 10.7625 46.3438 23.4219V182.328C46.3438 194.988 36.0813 205.25 23.4219 205.25V205.25C10.7625 205.25 0.5 194.988 0.5 182.328V23.4219C0.5 10.7625 10.7625 0.5 23.4219 0.5V0.5Z" fill="#25C2A5"/>
</svg>
